HIERARCHY
ROOT Hips
{
	OFFSET -3.958830 18.904000 13.208200
	CHANNELS 6 Xposition Yposition Zposition Zrotation Yrotation Xrotation 
	JOINT LHipJoint
	{
		OFFSET 0.000000 0.000000 0.000000
		CHANNELS 3 Zrotation Yrotation Xrotation
		JOINT LeftUpLeg
		{
			OFFSET 1.800000 -1.400000 0.085000
			CHANNELS 3 Zrotation Yrotation Xrotation
			JOINT LeftLeg
			{
				OFFSET 2.215000 -6.000000 0.000000
				CHANNELS 3 Zrotation Yrotation Xrotation
				JOINT LeftFoot
				{
					OFFSET 2.500000 -6.900000 0.000000
					CHANNELS 3 Zrotation Yrotation Xrotation
					JOINT LeftToeBase
					{
						OFFSET 0.200000 -0.500000 1.950000
						CHANNELS 3 Zrotation Yrotation Xrotation
						End Site
						{
							OFFSET 0.000000 0.000000 0.000000
						}
					}
				}
			}
		}
	}
	JOINT RHipJoint
	{
		OFFSET 0.000000 0.000000 0.000000
		CHANNELS 3 Zrotation Yrotation Xrotation
		JOINT RightUpLeg
		{
			OFFSET -1.800000 -1.400000 0.085000
			CHANNELS 3 Zrotation Yrotation Xrotation
			JOINT RightLeg
			{
				OFFSET -2.215000 -6.000000 0.000000
				CHANNELS 3 Zrotation Yrotation Xrotation
				JOINT RightFoot
				{
					OFFSET -2.500000 -6.900000 0.000000
					CHANNELS 3 Zrotation Yrotation Xrotation
					JOINT RightToeBase
					{
						OFFSET -0.200000 -0.500000 1.950000
						CHANNELS 3 Zrotation Yrotation Xrotation
						End Site
						{
							OFFSET 0.000000 0.000000 0.000000
						}
					}
				}
			}
		}
	}
	JOINT LowerBack
	{
		OFFSET 0.000000 0.000000 0.000000
		CHANNELS 3 Zrotation Yrotation Xrotation
		JOINT Spine
		{
			OFFSET -0.087000 1.940000 -0.288900
			CHANNELS 3 Zrotation Yrotation Xrotation
			JOINT Spine1
			{
				OFFSET 0.000000 1.950000 0.060000
				CHANNELS 3 Zrotation Yrotation Xrotation
				JOINT Neck
				{
					OFFSET 0.000000 0.000000 0.000000
					CHANNELS 3 Zrotation Yrotation Xrotation
					JOINT Neck1
					{
						OFFSET 0.000000 1.600000 0.340000
						CHANNELS 3 Zrotation Yrotation Xrotation
						JOINT Head
						{
							OFFSET 0.000000 1.667000 -0.240000
							CHANNELS 3 Zrotation Yrotation Xrotation
							End Site
							{
								OFFSET 0.000000 0.000000 0.000000
							}
						}
					}
				}
				JOINT LeftShoulder
				{
					OFFSET 0.000000 0.000000 0.000000
					CHANNELS 3 Zrotation Yrotation Xrotation
					JOINT LeftArm
					{
						OFFSET 2.700000 1.550000 -0.730000
						CHANNELS 3 Zrotation Yrotation Xrotation
						JOINT LeftForeArm
						{
							OFFSET 5.450000 0.000000 0.000000
							CHANNELS 3 Zrotation Yrotation Xrotation
							JOINT LeftHand
							{
								OFFSET 3.450000 0.000000 0.000000
								CHANNELS 3 Zrotation Yrotation Xrotation
								JOINT LeftHandIndex1
								{
									OFFSET 0.750000 0.000000 0.000000
									CHANNELS 3 Zrotation Yrotation Xrotation
									End Site
									{
										OFFSET 0.000000 0.000000 0.000000
									}
								}
							}
						}
					}
				}
				JOINT RightShoulder
				{
					OFFSET 0.000000 0.000000 0.000000
					CHANNELS 3 Zrotation Yrotation Xrotation
					JOINT RightArm
					{
						OFFSET -2.700000 1.550000 -0.730000
						CHANNELS 3 Zrotation Yrotation Xrotation
						JOINT RightForeArm
						{
							OFFSET -5.450000 0.000000 0.000000
							CHANNELS 3 Zrotation Yrotation Xrotation
							JOINT RightHand
							{
								OFFSET -3.450000 0.000000 0.000000
								CHANNELS 3 Zrotation Yrotation Xrotation
								JOINT RightHandIndex1
								{
									OFFSET -0.750000 0.000000 0.000000
									CHANNELS 3 Zrotation Yrotation Xrotation
									End Site
									{
										OFFSET 0.000000 0.000000 0.000000
									}
								}
							}
						}
					}
				}
			}
		}
	}
}
MOTION
Frames: 14
Frame Time: 0.016667
-0.663080 16.764060 -5.200210 -3.599746 3.528195 10.181890 -15.277653 13.511953 3.120224 3.137536 -2.074814 -17.364873 -8.073988 6.796356 18.031439 -0.196733 3.879081 3.101249 0.017040 -0.084430 0.027430 18.005994 -10.984188 3.000042 -3.193064 0.223652 -9.806275 9.008560 -4.882588 8.833410 -0.199179 -3.023673 3.395382 -0.063960 -0.083230 -0.059270 -3.087850 -1.874246 -7.758325 4.055303 1.915895 13.407717 4.051325 2.642838 1.308860 0.867323 -3.403355 -11.085291 -7.909596 -2.467173 33.037071 2.059550 -3.350540 -16.530730 -19.463486 -4.147928 5.413354 -51.131757 9.534464 -9.644855 -59.034021 -36.678814 15.469022 -3.407700 3.174164 0.468890 -0.199240 0.121570 -0.019060 18.429644 9.532172 7.430439 49.223021 -4.944462 -11.089530 53.754981 43.833874 15.831684 2.398274 -1.460180 -0.168330 0.186650 0.087040 -0.140790 
-0.640140 16.767800 -5.231600 -4.485179 3.761137 8.793869 -15.239409 13.631900 3.065927 3.877233 -1.707660 -16.136286 -7.314445 6.486285 17.118343 -0.238816 3.783320 3.131310 0.032790 -0.067850 0.052800 18.016519 -11.195736 2.863694 -3.302110 -0.093232 -8.391178 7.584353 -5.445426 12.957563 -0.246099 -3.278119 3.294372 -0.049740 -0.096270 -0.056360 -3.164557 -1.782030 -7.666050 5.184743 1.773938 13.228163 4.034003 2.468119 3.210710 1.012614 -2.565034 -11.568835 -6.669636 -2.391878 34.800968 1.962010 -2.936550 -16.185930 -16.949980 -4.502843 5.893238 -48.102423 9.446824 -8.485965 -66.523565 -39.622114 20.402441 -3.391188 3.237234 0.486510 -0.201350 0.138680 -0.026010 15.593089 9.033957 7.620451 47.684499 -4.871566 -10.767689 56.891668 47.421924 18.901789 2.391326 -1.481944 -0.172010 0.192740 0.084890 -0.154410 
-0.601520 16.792400 -5.260040 -5.996530 4.391092 6.763646 -15.166913 13.812806 2.974668 4.875625 -1.330024 -14.752319 -5.847857 6.222868 17.383359 -0.283569 3.780700 3.124681 0.070060 -0.016710 0.076930 18.058353 -11.443911 2.716164 -2.613101 -0.372472 -6.913323 4.718335 -5.924495 19.535851 -0.328882 -3.725078 3.122649 -0.007180 -0.102240 -0.055360 -3.350064 -1.716363 -7.552919 7.837149 1.230976 13.407514 3.722648 2.033831 5.467697 1.166101 -2.089267 -11.785126 -6.074835 -2.441019 36.461598 1.905470 -2.940840 -16.063790 -15.495604 -4.977022 6.085370 -44.720654 8.087652 -6.809024 -72.638016 -45.908827 28.154409 -3.389522 3.305897 0.491060 -0.198060 0.151380 -0.022640 13.723451 8.777886 7.780864 44.774749 -4.439420 -10.188031 59.462746 54.140719 23.741351 2.376903 -1.512760 -0.172150 0.211270 0.077470 -0.159180 
-0.554920 16.813940 -5.296280 -7.079602 5.600531 4.431727 -15.089574 13.975222 2.892414 5.579375 -1.066933 -13.282535 -4.597463 6.062105 18.038758 -0.318406 3.850936 3.092486 0.125740 0.063250 0.102080 18.117986 -11.643206 2.557323 -1.828397 -0.183515 -6.338507 0.620105 -6.252569 30.149936 -0.517382 -4.694223 2.759198 0.055440 -0.106790 -0.049850 -3.587911 -1.715827 -7.435097 10.752183 0.204505 14.018598 2.842708 1.158350 7.633582 1.269482 -2.217636 -11.627182 -6.553076 -2.276992 37.506940 1.501050 -2.996600 -16.541310 -14.551326 -5.157816 5.869362 -41.059822 5.528441 -4.955529 -76.788283 -54.577092 37.801262 -3.417771 3.363314 0.484290 -0.191580 0.163600 -0.011960 12.436692 8.508093 7.733165 41.978747 -3.284983 -9.562518 59.623268 63.509569 29.202972 2.373130 -1.521599 -0.164030 0.233210 0.065010 -0.156650 
-0.519680 16.822850 -5.315640 -7.505027 7.055177 2.228727 -15.051131 14.034885 2.783874 5.750169 -0.857957 -11.658708 -3.516871 5.903958 18.538999 -0.354477 3.943642 3.067893 0.171740 0.127320 0.115160 18.173676 -11.716550 2.499874 -0.898059 0.273116 -5.392189 -3.644471 -6.104205 41.410906 -0.830049 -6.138278 2.254325 0.121300 -0.086390 -0.043060 -3.765991 -1.716517 -7.340181 12.654031 -0.626331 14.211928 2.256502 0.295006 9.345722 1.220240 -2.449198 -11.044776 -7.184316 -2.323729 38.131013 0.901980 -3.473650 -16.469370 -14.480753 -4.999058 5.296959 -36.897422 2.453988 -3.078842 -78.320407 -65.197967 47.925369 -3.520542 3.333078 0.460150 -0.165780 0.152150 0.002680 12.415534 8.034984 7.391969 38.394315 -1.784311 -8.811881 55.107074 75.406200 33.573789 2.344674 -1.519387 -0.166560 0.261750 0.061670 -0.150060 
-0.485480 16.806840 -5.332410 -7.133509 8.566744 0.476175 -15.040798 13.976721 2.722474 5.330215 -0.744999 -10.218637 -3.344490 5.877322 18.473960 -0.390163 4.037028 3.050889 0.213960 0.186440 0.122400 18.222078 -11.715236 2.491716 -0.112448 0.805855 -4.891125 -7.413244 -5.542780 51.480955 -1.175022 -7.610413 1.768304 0.190850 -0.052160 -0.031880 -3.887858 -1.655788 -7.286575 13.287957 -1.340229 14.248443 1.487534 -0.491317 9.863355 1.102194 -2.446662 -9.705666 -7.147184 -2.514701 37.998787 0.194230 -3.854770 -16.393070 -14.975009 -4.165860 4.376468 -32.844973 -1.073845 -1.411639 -69.378267 -78.087110 51.229332 -3.678237 3.129570 0.423200 -0.124320 0.126090 0.019460 13.110866 6.994921 5.981844 35.843281 -0.016667 -11.038138 24.554840 84.735688 16.001805 2.013382 -1.701578 -0.173510 0.288130 0.061570 -0.143300 
-0.447700 16.797980 -5.361130 -6.872913 10.439005 -1.276752 -15.040780 13.941133 2.704782 5.181264 -0.629040 -8.797444 -3.726333 5.933927 17.791548 -0.410579 4.125337 3.037201 0.250110 0.239880 0.124620 18.257514 -11.609723 2.541811 1.007502 1.266746 -5.357361 -10.341984 -4.933086 60.034610 -1.494148 -8.879624 1.371975 0.252250 -0.023590 -0.032780 -3.988210 -1.786999 -7.341099 14.223467 -2.521209 15.034423 0.485479 -1.554238 8.510871 1.108854 -3.034704 -7.720110 -8.439025 -2.413825 38.558081 -0.372830 -4.504910 -16.308820 -17.271564 -4.423847 2.934174 -29.350440 -3.556398 -4.067994 6.360479 -85.858680 -8.108314 -3.410068 3.096165 0.389000 -0.095440 0.101320 0.035260 15.360199 7.429173 3.870431 32.463126 1.627477 -16.072222 -44.509799 84.526927 -37.399416 1.444053 -0.285555 -0.180210 0.318330 0.060340 -0.133070 
-0.414220 16.782940 -5.391660 -6.692949 11.744657 -3.070812 -15.026573 13.895092 2.702883 4.941433 -0.558743 -7.531428 -4.111491 5.992251 17.191730 -0.431633 4.217855 3.023136 0.278140 0.274140 0.129720 18.304701 -11.479781 2.656640 2.974375 1.691903 -6.018918 -14.262835 -3.053933 67.358184 -1.795709 -9.965732 1.054050 0.300490 0.002480 -0.030870 -4.107759 -1.894429 -7.410917 15.305983 -3.641685 16.064101 -1.030004 -2.450900 7.039302 1.265715 -3.409852 -6.190004 -9.368383 -2.152602 39.515815 -1.009510 -4.894250 -15.987200 -21.130613 -5.287628 0.723999 -25.000235 -6.605263 -6.193206 66.312925 -77.613956 -48.139804 -3.018503 1.263824 0.370440 -0.069700 0.081050 0.048820 18.813404 7.670173 3.451025 27.985193 5.298559 -12.378211 -81.111666 70.571441 -51.979727 0.974248 1.104994 -0.193470 0.345260 0.061950 -0.130480 
-0.388050 16.776310 -5.421220 -7.092833 11.852674 -5.328631 -14.969957 13.839547 2.675764 5.230077 -0.513199 -6.088691 -4.301794 6.066577 16.933427 -0.434153 4.334020 2.996849 0.312900 0.321530 0.139510 18.383591 -11.374885 2.837181 5.878992 1.794784 -6.061721 -18.184030 -0.014799 68.993162 -1.927974 -10.298103 0.966164 0.346850 0.016680 -0.028580 -4.293855 -1.852628 -7.468399 17.406525 -4.881745 17.303922 -3.527619 -3.314772 7.127595 1.617903 -4.037273 -5.782413 -10.586571 -1.309901 40.521399 -1.539340 -4.771280 -15.735650 -26.722089 -7.519009 0.760306 -18.809070 -11.024197 -3.639399 87.553877 -59.018161 -50.921631 -3.376538 1.652375 0.351450 -0.052050 0.071750 0.063970 23.444727 9.721305 3.916139 22.436395 9.009586 -9.324216 -92.547873 56.495976 -54.627052 1.612123 -0.243767 -0.195110 0.362880 0.053900 -0.125200 
-0.375930 16.781670 -5.456640 -7.428767 10.479912 -7.869663 -14.900231 13.803036 2.640493 5.584022 -0.447921 -4.352396 -4.164578 6.186606 17.386987 -0.425489 4.524715 2.945481 0.335970 0.352800 0.142840 18.460669 -11.357125 2.947621 7.673133 1.643541 -5.402117 -19.931764 1.901852 62.774620 -1.746708 -9.499948 1.196457 0.384620 0.038420 -0.024580 -4.455702 -1.683765 -7.447247 18.973341 -5.770055 19.052090 -5.515481 -3.861450 8.132161 1.762780 -4.830297 -5.456617 -11.934638 -0.229706 40.762169 -1.952520 -4.365280 -15.598280 -30.327403 -10.922438 0.955946 -13.035746 -13.995433 -4.235380 95.474978 -46.971357 -47.552453 -3.683830 2.213086 0.332480 -0.029400 0.055730 0.075210 26.651738 13.065554 4.463269 17.099000 12.188560 -8.928640 -100.229120 48.489876 -56.020924 1.858930 -0.868820 -0.201790 0.378830 0.053860 -0.122120 
-0.367920 16.771030 -5.503720 -7.258479 10.011560 -10.350146 -14.877647 13.745935 2.618409 6.001131 -0.301627 -2.276774 -4.340410 6.411191 17.557756 -0.402383 4.766418 2.881604 0.351180 0.375190 0.141340 18.496368 -11.367179 2.966724 8.162309 1.648631 -5.364828 -20.360522 2.407207 58.588192 -1.595671 -8.944398 1.353996 0.420890 0.070660 -0.011520 -4.519418 -1.493453 -7.412832 19.250363 -6.309666 20.879913 -6.612148 -4.222131 10.607064 1.840600 -5.028474 -5.423168 -11.849764 -0.261920 39.125873 -2.405160 -4.247270 -15.677460 -30.733917 -14.456438 1.424488 -7.702475 -16.808312 -4.859471 102.625841 -40.615940 -46.962144 -3.822758 2.391974 0.300190 0.008450 0.029260 0.084860 27.037839 16.293990 5.041136 12.063821 14.732904 -8.895368 -107.361146 42.993254 -57.751372 1.937127 -1.180166 -0.208850 0.388360 0.057810 -0.118250 
-0.361770 16.750420 -5.544520 -6.692082 10.199158 -12.451757 -14.907040 13.705001 2.595134 6.172608 -0.165708 -0.508961 -4.375846 6.665671 18.221476 -0.378566 5.033884 2.813022 0.361680 0.401220 0.127080 18.486792 -11.373254 2.921448 7.980784 1.626427 -5.749409 -19.129086 1.792037 54.251642 -1.387832 -8.271575 1.555739 0.465890 0.125130 -0.003350 -4.467677 -1.375063 -7.346250 18.267193 -6.193524 22.416848 -6.722076 -4.066728 13.789166 1.817980 -4.506624 -5.372233 -10.242335 -1.289062 35.840006 -2.283140 -4.471500 -16.023600 -28.358365 -16.446535 1.509504 -2.941466 -20.381509 -4.270515 109.265380 -39.127157 -50.628494 -3.892305 2.422386 0.253880 0.061700 -0.011610 0.101190 24.934842 17.679331 5.334091 6.954093 15.612460 -8.421695 -115.596138 39.998744 -63.059761 1.945551 -1.355705 -0.223780 0.411540 0.063200 -0.107880 
-0.345210 16.736700 -5.587270 -6.827191 11.199611 -14.904973 -14.938881 13.677917 2.517026 6.833783 -0.085182 1.162302 -4.040240 6.906620 19.289434 -0.345488 5.310952 2.729483 0.378740 0.433090 0.123250 18.484933 -11.311184 2.919810 7.934286 2.365381 -7.729649 -18.970441 1.560014 59.528391 -1.544791 -9.033038 1.315669 0.503930 0.153590 0.005150 -4.441304 -1.362708 -7.316955 18.357676 -6.877415 24.461092 -7.280165 -4.640867 16.204887 1.960849 -4.254081 -5.406921 -9.259582 -2.157946 33.142317 -2.305960 -4.786560 -16.657870 -24.545257 -17.138493 1.381478 3.220868 -22.419538 -3.975886 116.401623 -39.524917 -57.436317 -3.938085 2.437181 0.221970 0.093700 -0.033670 0.111630 21.075107 17.835637 5.065126 0.657901 16.053181 -7.733182 -122.329101 39.325422 -69.620955 1.941888 -1.441316 -0.227350 0.423950 0.062810 -0.100260 
-0.336250 16.721200 -5.619900 -6.982618 12.641723 -17.046807 -14.991889 13.638431 2.432908 7.523795 0.021058 2.557299 -3.837189 7.110439 19.803204 -0.323382 5.520812 2.660362 0.396250 0.461250 0.128450 18.477518 -11.134752 2.992601 8.310603 3.458185 -10.780615 -19.750020 1.654240 68.273614 -1.863458 -10.343903 0.923804 0.532460 0.162500 0.010300 -4.382308 -1.500220 -7.355991 18.083196 -7.682988 26.255716 -7.637087 -5.462784 17.885535 2.033660 -3.937898 -5.491663 -8.560628 -2.860086 31.923596 -2.337670 -5.096490 -17.330460 -18.998194 -15.977218 0.812610 9.239911 -23.497014 -3.408818 122.709456 -41.687972 -66.793529 -3.947664 2.447681 0.212980 0.107280 -0.037780 0.115530 15.601636 16.188972 4.353091 -4.762423 15.980711 -6.465981 -128.769743 40.619727 -79.300937 1.938623 -1.481947 -0.229490 0.436110 0.062280 -0.099570 
